<?xml version="1.0" encoding="UTF-8"?>
<svg xmlns="http://www.w3.org/2000/svg" viewBox="0 0 1280 320" role="img" aria-label="Progress Bar — Filament v5 plugin banner">
    <title>Progress Bar — Filament v5 plugin</title>

    <defs>
        <linearGradient id="bg" x1="0" y1="0" x2="1" y2="1">
            <stop offset="0" stop-color="#f8fafc"/>
            <stop offset="1" stop-color="#ecfdf5"/>
        </linearGradient>

        <linearGradient id="fill" x1="0" y1="0" x2="1" y2="0">
            <stop offset="0" stop-color="#22c55e"/>
            <stop offset="1" stop-color="#16a34a"/>
        </linearGradient>

        <linearGradient id="fillWarn" x1="0" y1="0" x2="1" y2="0">
            <stop offset="0" stop-color="#f59e0b"/>
            <stop offset="1" stop-color="#d97706"/>
        </linearGradient>

        <linearGradient id="fillDanger" x1="0" y1="0" x2="1" y2="0">
            <stop offset="0" stop-color="#ef4444"/>
            <stop offset="1" stop-color="#dc2626"/>
        </linearGradient>

        <linearGradient id="fillPrimary" x1="0" y1="0" x2="1" y2="0">
            <stop offset="0" stop-color="#3b82f6"/>
            <stop offset="1" stop-color="#2563eb"/>
        </linearGradient>

        <filter id="shadow" x="-5%" y="-10%" width="110%" height="130%">
            <feDropShadow dx="0" dy="2" stdDeviation="3" flood-color="#0f172a" flood-opacity="0.12"/>
        </filter>

        <pattern id="stripes" width="16" height="16" patternUnits="userSpaceOnUse" patternTransform="rotate(45)">
            <rect width="8" height="16" fill="rgba(255,255,255,0.2)"/>
        </pattern>
    </defs>

    <rect width="1280" height="320" fill="url(#bg)"/>

    <!-- Decorative circles -->
    <circle cx="1200" cy="80" r="160" fill="#22c55e" opacity="0.08"/>
    <circle cx="1060" cy="40" r="90" fill="#3b82f6" opacity="0.05"/>
    <circle cx="1240" cy="260" r="110" fill="#f59e0b" opacity="0.06"/>

    <g font-family="-apple-system, BlinkMacSystemFont, 'Segoe UI', Roboto, 'Helvetica Neue', Arial, sans-serif">
        <text x="80" y="108" font-size="56" font-weight="800" fill="#0f172a" letter-spacing="-1.5">Progress Bar</text>
        <text x="80" y="148" font-size="22" font-weight="500" fill="#475569">A Filament v5 table column &amp; infolist entry for progress visualisation</text>
        <text x="80" y="186" font-size="14" font-weight="500" fill="#64748b" letter-spacing="0.3">4 sizes · 3 shapes · 6 colors · stripes · gradients · thresholds · indeterminate · ARIA-compliant</text>
    </g>

    <!-- Bars showcase -->
    <g transform="translate(80, 215)" filter="url(#shadow)" font-family="-apple-system, BlinkMacSystemFont, 'Segoe UI', Roboto, 'Helvetica Neue', Arial, sans-serif">
        <!-- Danger at 25% -->
        <g>
            <rect x="0" y="0" width="220" height="18" rx="9" fill="#e5e7eb"/>
            <rect x="0" y="0" width="55" height="18" rx="9" fill="url(#fillDanger)"/>
            <text x="230" y="13" font-size="12" font-weight="600" fill="#475569">25%</text>
        </g>

        <!-- Warning at 50% striped -->
        <g transform="translate(0, 28)">
            <rect x="0" y="0" width="220" height="18" rx="9" fill="#e5e7eb"/>
            <rect x="0" y="0" width="110" height="18" rx="9" fill="url(#fillWarn)"/>
            <rect x="0" y="0" width="110" height="18" rx="9" fill="url(#stripes)"/>
            <text x="230" y="13" font-size="12" font-weight="600" fill="#475569">50%</text>
        </g>

        <!-- Info at 75% with label inside -->
        <g transform="translate(0, 56)">
            <rect x="0" y="0" width="220" height="18" rx="9" fill="#e5e7eb"/>
            <rect x="0" y="0" width="165" height="18" rx="9" fill="url(#fillPrimary)"/>
            <text x="230" y="13" font-size="12" font-weight="600" fill="#475569">75%</text>
        </g>

        <!-- Success at 100% -->
        <g transform="translate(0, 84)">
            <rect x="0" y="0" width="220" height="18" rx="9" fill="#e5e7eb"/>
            <rect x="0" y="0" width="220" height="18" rx="9" fill="url(#fill)"/>
            <text x="100" y="13" font-size="12" font-weight="700" fill="#ffffff" text-anchor="middle">100%</text>
        </g>
    </g>

    <!-- Larger hero bar — demonstrates gradient + inside label -->
    <g transform="translate(480, 220)" filter="url(#shadow)">
        <rect x="0" y="0" width="460" height="38" rx="19" fill="#e5e7eb"/>
        <rect x="0" y="0" width="345" height="38" rx="19" fill="url(#fillPrimary)"/>
        <text x="230" y="25" font-family="-apple-system" font-size="14" font-weight="700" fill="#ffffff" text-anchor="middle">75.00%</text>

        <rect x="0" y="48" width="460" height="10" rx="5" fill="#e5e7eb"/>
        <rect x="0" y="48" width="322" height="10" rx="5" fill="url(#fill)"/>

        <rect x="0" y="66" width="460" height="10" rx="0" fill="#e5e7eb"/>
        <rect x="0" y="66" width="161" height="10" rx="0" fill="url(#fillWarn)"/>
    </g>

    <!-- Package ribbon -->
    <g transform="translate(980, 80)" font-family="'SF Mono', Menlo, Monaco, Consolas, 'Liberation Mono', monospace">
        <rect x="0" y="0" width="200" height="32" rx="16" fill="#0f172a" opacity="0.9"/>
        <text x="14" y="21" font-size="13" font-weight="600" fill="#ffffff">webkul/progress-bar</text>
    </g>
</svg>
