<?xml version="1.0" encoding="UTF-8"?>
<svg xmlns="http://www.w3.org/2000/svg" viewBox="0 0 1280 320" role="img" aria-label="Progress Bar — Filament v5 plugin banner (dark)">
    <title>Progress Bar — Filament v5 plugin</title>

    <defs>
        <linearGradient id="bg" x1="0" y1="0" x2="1" y2="1">
            <stop offset="0" stop-color="#0b1020"/>
            <stop offset="1" stop-color="#0f1e2a"/>
        </linearGradient>

        <linearGradient id="fill" x1="0" y1="0" x2="1" y2="0">
            <stop offset="0" stop-color="#4ade80"/>
            <stop offset="1" stop-color="#22c55e"/>
        </linearGradient>

        <linearGradient id="fillWarn" x1="0" y1="0" x2="1" y2="0">
            <stop offset="0" stop-color="#fbbf24"/>
            <stop offset="1" stop-color="#f59e0b"/>
        </linearGradient>

        <linearGradient id="fillDanger" x1="0" y1="0" x2="1" y2="0">
            <stop offset="0" stop-color="#f87171"/>
            <stop offset="1" stop-color="#ef4444"/>
        </linearGradient>

        <linearGradient id="fillPrimary" x1="0" y1="0" x2="1" y2="0">
            <stop offset="0" stop-color="#60a5fa"/>
            <stop offset="1" stop-color="#3b82f6"/>
        </linearGradient>

        <filter id="shadow" x="-5%" y="-10%" width="110%" height="130%">
            <feDropShadow dx="0" dy="2" stdDeviation="3" flood-color="#000000" flood-opacity="0.4"/>
        </filter>

        <pattern id="stripes" width="16" height="16" patternUnits="userSpaceOnUse" patternTransform="rotate(45)">
            <rect width="8" height="16" fill="rgba(255,255,255,0.25)"/>
        </pattern>
    </defs>

    <rect width="1280" height="320" fill="url(#bg)"/>

    <circle cx="1200" cy="80" r="160" fill="#22c55e" opacity="0.12"/>
    <circle cx="1060" cy="40" r="90" fill="#3b82f6" opacity="0.10"/>
    <circle cx="1240" cy="260" r="110" fill="#f59e0b" opacity="0.10"/>

    <g font-family="-apple-system, BlinkMacSystemFont, 'Segoe UI', Roboto, 'Helvetica Neue', Arial, sans-serif">
        <text x="80" y="108" font-size="56" font-weight="800" fill="#f8fafc" letter-spacing="-1.5">Progress Bar</text>
        <text x="80" y="148" font-size="22" font-weight="500" fill="#cbd5e1">A Filament v5 table column &amp; infolist entry for progress visualisation</text>
        <text x="80" y="186" font-size="14" font-weight="500" fill="#94a3b8" letter-spacing="0.3">4 sizes · 3 shapes · 6 colors · stripes · gradients · thresholds · indeterminate · ARIA-compliant</text>
    </g>

    <g transform="translate(80, 215)" filter="url(#shadow)" font-family="-apple-system, BlinkMacSystemFont, 'Segoe UI', Roboto, 'Helvetica Neue', Arial, sans-serif">
        <g>
            <rect x="0" y="0" width="220" height="18" rx="9" fill="#1e293b"/>
            <rect x="0" y="0" width="55" height="18" rx="9" fill="url(#fillDanger)"/>
            <text x="230" y="13" font-size="12" font-weight="600" fill="#cbd5e1">25%</text>
        </g>

        <g transform="translate(0, 28)">
            <rect x="0" y="0" width="220" height="18" rx="9" fill="#1e293b"/>
            <rect x="0" y="0" width="110" height="18" rx="9" fill="url(#fillWarn)"/>
            <rect x="0" y="0" width="110" height="18" rx="9" fill="url(#stripes)"/>
            <text x="230" y="13" font-size="12" font-weight="600" fill="#cbd5e1">50%</text>
        </g>

        <g transform="translate(0, 56)">
            <rect x="0" y="0" width="220" height="18" rx="9" fill="#1e293b"/>
            <rect x="0" y="0" width="165" height="18" rx="9" fill="url(#fillPrimary)"/>
            <text x="230" y="13" font-size="12" font-weight="600" fill="#cbd5e1">75%</text>
        </g>

        <g transform="translate(0, 84)">
            <rect x="0" y="0" width="220" height="18" rx="9" fill="#1e293b"/>
            <rect x="0" y="0" width="220" height="18" rx="9" fill="url(#fill)"/>
            <text x="100" y="13" font-size="12" font-weight="700" fill="#0b1020" text-anchor="middle">100%</text>
        </g>
    </g>

    <g transform="translate(480, 220)" filter="url(#shadow)">
        <rect x="0" y="0" width="460" height="38" rx="19" fill="#1e293b"/>
        <rect x="0" y="0" width="345" height="38" rx="19" fill="url(#fillPrimary)"/>
        <text x="230" y="25" font-family="-apple-system" font-size="14" font-weight="700" fill="#ffffff" text-anchor="middle">75.00%</text>

        <rect x="0" y="48" width="460" height="10" rx="5" fill="#1e293b"/>
        <rect x="0" y="48" width="322" height="10" rx="5" fill="url(#fill)"/>

        <rect x="0" y="66" width="460" height="10" rx="0" fill="#1e293b"/>
        <rect x="0" y="66" width="161" height="10" rx="0" fill="url(#fillWarn)"/>
    </g>

    <g transform="translate(980, 80)" font-family="'SF Mono', Menlo, Monaco, Consolas, 'Liberation Mono', monospace">
        <rect x="0" y="0" width="200" height="32" rx="16" fill="#f8fafc" opacity="0.95"/>
        <text x="14" y="21" font-size="13" font-weight="600" fill="#0f172a">aureuserp/progress-bar</text>
    </g>
</svg>
